<svg xmlns="http://www.w3.org/2000/svg" xmlns:xlink="http://www.w3.org/1999/xlink" width="2000" zoomAndPan="magnify" viewBox="0 0 1500 1499.999933" height="2000" preserveAspectRatio="xMidYMid meet" version="1.0"><defs><g/><clipPath id="8d88f17331"><path d="M 250.519531 30.027344 L 1249.519531 30.027344 L 1249.519531 1470.027344 L 250.519531 1470.027344 Z M 250.519531 30.027344 " clip-rule="nonzero"/></clipPath></defs><g clip-path="url(#8d88f17331)"><path fill="#000000" d="M 750.035156 29.855469 C 474.324219 29.855469 250.882812 253.3125 250.882812 529.003906 C 250.882812 574.859375 257.179688 619.234375 268.789062 661.394531 C 278.832031 698.109375 292.910156 733.191406 310.664062 766.027344 C 314.953125 773.941406 319.480469 781.753906 324.160156 789.429688 L 700.484375 1441.261719 C 701.285156 1442.65625 702.019531 1444.121094 702.902344 1445.480469 C 713.25 1460.425781 730.476562 1470.195312 750 1470.195312 C 769.574219 1470.195312 786.851562 1460.289062 797.183594 1445.292969 L 798.785156 1442.519531 L 1175.789062 789.550781 L 1189.40625 765.976562 C 1207.128906 733.15625 1221.1875 698.058594 1231.28125 661.394531 C 1242.839844 619.234375 1249.152344 574.859375 1249.152344 529.003906 C 1249.152344 253.3125 1025.695312 29.855469 750.035156 29.855469 Z M 750 738.246094 C 634.390625 738.246094 540.6875 644.546875 540.6875 529.003906 C 540.6875 413.394531 634.375 319.675781 750 319.675781 C 865.59375 319.675781 959.246094 413.394531 959.246094 529.003906 C 959.246094 644.546875 865.59375 738.246094 750 738.246094 Z M 750 738.246094 " fill-opacity="1" fill-rule="nonzero"/></g><g fill="#000000" fill-opacity="1"><g transform="translate(445.940587, 846.213939)"><g><path d="M 22.3125 0 L 16.96875 0 L 16.96875 -17.9375 L 1.1875 -45.6875 L 7.0625 -45.6875 L 19.375 -24.28125 L 20.15625 -24.28125 L 32.375 -45.6875 L 38.125 -45.6875 L 22.3125 -17.9375 Z M 22.3125 0 "/></g></g></g><g fill="#000000" fill-opacity="1"><g transform="translate(480.78211, 846.213939)"><g><path d="M 19.78125 0.65625 C 16.53125 0.65625 13.703125 -0.03125 11.296875 -1.40625 C 8.890625 -2.78125 7.035156 -4.804688 5.734375 -7.484375 C 4.429688 -10.160156 3.78125 -13.40625 3.78125 -17.21875 C 3.78125 -21.03125 4.429688 -24.28125 5.734375 -26.96875 C 7.035156 -29.65625 8.890625 -31.6875 11.296875 -33.0625 C 13.703125 -34.4375 16.53125 -35.125 19.78125 -35.125 C 23.03125 -35.125 25.859375 -34.4375 28.265625 -33.0625 C 30.671875 -31.6875 32.523438 -29.65625 33.828125 -26.96875 C 35.128906 -24.28125 35.78125 -21.03125 35.78125 -17.21875 C 35.78125 -13.40625 35.128906 -10.160156 33.828125 -7.484375 C 32.523438 -4.804688 30.671875 -2.78125 28.265625 -1.40625 C 25.859375 -0.03125 23.03125 0.65625 19.78125 0.65625 Z M 19.78125 -3.90625 C 23.21875 -3.90625 25.847656 -4.988281 27.671875 -7.15625 C 29.492188 -9.320312 30.40625 -12.675781 30.40625 -17.21875 C 30.40625 -21.78125 29.492188 -25.144531 27.671875 -27.3125 C 25.847656 -29.476562 23.21875 -30.5625 19.78125 -30.5625 C 16.34375 -30.5625 13.707031 -29.472656 11.875 -27.296875 C 10.039062 -25.117188 9.125 -21.757812 9.125 -17.21875 C 9.125 -12.675781 10.039062 -9.320312 11.875 -7.15625 C 13.707031 -4.988281 16.34375 -3.90625 19.78125 -3.90625 Z M 19.78125 -3.90625 "/></g></g></g><g fill="#000000" fill-opacity="1"><g transform="translate(520.342192, 846.213939)"><g><path d="M 17.03125 0.65625 C 13.132812 0.65625 10.234375 -0.375 8.328125 -2.4375 C 6.421875 -4.5 5.46875 -7.519531 5.46875 -11.5 L 5.46875 -34.46875 L 10.5625 -34.46875 L 10.5625 -11.625 C 10.5625 -6.394531 13.019531 -3.78125 17.9375 -3.78125 C 21.0625 -3.78125 23.53125 -4.800781 25.34375 -6.84375 C 27.15625 -8.882812 28.0625 -12.195312 28.0625 -16.78125 L 28.0625 -34.46875 L 33.15625 -34.46875 L 33.15625 0 L 28.34375 0 L 28.34375 -5.40625 L 27.6875 -5.5625 C 26.5 -3.457031 25.078125 -1.894531 23.421875 -0.875 C 21.765625 0.144531 19.632812 0.65625 17.03125 0.65625 Z M 17.03125 0.65625 "/></g></g></g><g fill="#000000" fill-opacity="1"><g transform="translate(559.496054, 846.213939)"><g><path d="M 6 0 L 6 -34.46875 L 10.84375 -34.46875 L 10.84375 -29.0625 L 11.5 -28.90625 C 13.101562 -32.820312 16.125 -34.78125 20.5625 -34.78125 C 22.914062 -34.78125 24.675781 -34.351562 25.84375 -33.5 L 24.53125 -29.1875 L 23.90625 -29.0625 C 22.613281 -29.707031 21.195312 -30.03125 19.65625 -30.03125 C 16.90625 -30.03125 14.789062 -29 13.3125 -26.9375 C 11.832031 -24.875 11.09375 -21.53125 11.09375 -16.90625 L 11.09375 0 Z M 6 0 "/></g></g></g><g fill="#000000" fill-opacity="1"><g transform="translate(586.119426, 846.213939)"><g/></g></g><g fill="#000000" fill-opacity="1"><g transform="translate(601.805967, 846.213939)"><g><path d="M 6 13.96875 L 6 -34.46875 L 11.09375 -34.46875 L 11.09375 -29.3125 L 11.75 -29.1875 C 14.3125 -33.144531 18.070312 -35.125 23.03125 -35.125 C 25.90625 -35.125 28.414062 -34.46875 30.5625 -33.15625 C 32.707031 -31.84375 34.375 -29.847656 35.5625 -27.171875 C 36.75 -24.492188 37.34375 -21.175781 37.34375 -17.21875 C 37.34375 -13.28125 36.71875 -9.976562 35.46875 -7.3125 C 34.21875 -4.644531 32.488281 -2.648438 30.28125 -1.328125 C 28.070312 -0.00390625 25.53125 0.65625 22.65625 0.65625 C 20.320312 0.65625 18.25 0.25 16.4375 -0.5625 C 14.625 -1.375 13.0625 -2.707031 11.75 -4.5625 L 11.09375 -4.4375 L 11.09375 13.96875 Z M 21.53125 -3.90625 C 28.507812 -3.90625 32 -8.34375 32 -17.21875 C 32 -26.113281 28.507812 -30.5625 21.53125 -30.5625 C 19.488281 -30.5625 17.6875 -30.09375 16.125 -29.15625 C 14.5625 -28.21875 13.332031 -26.753906 12.4375 -24.765625 C 11.539062 -22.773438 11.09375 -20.257812 11.09375 -17.21875 C 11.09375 -14.195312 11.539062 -11.691406 12.4375 -9.703125 C 13.332031 -7.710938 14.5625 -6.25 16.125 -5.3125 C 17.6875 -4.375 19.488281 -3.90625 21.53125 -3.90625 Z M 21.53125 -3.90625 "/></g></g></g><g fill="#000000" fill-opacity="1"><g transform="translate(642.928454, 846.213939)"><g><path d="M 14.21875 0.65625 C 10.820312 0.65625 8.171875 -0.226562 6.265625 -2 C 4.359375 -3.769531 3.40625 -6.300781 3.40625 -9.59375 C 3.40625 -11.632812 3.828125 -13.359375 4.671875 -14.765625 C 5.515625 -16.171875 6.820312 -17.316406 8.59375 -18.203125 C 10.363281 -19.085938 12.675781 -19.769531 15.53125 -20.25 C 18.03125 -20.664062 19.929688 -21.132812 21.234375 -21.65625 C 22.535156 -22.175781 23.410156 -22.757812 23.859375 -23.40625 C 24.304688 -24.050781 24.53125 -24.863281 24.53125 -25.84375 C 24.53125 -27.40625 23.992188 -28.601562 22.921875 -29.4375 C 21.847656 -30.269531 20.125 -30.6875 17.75 -30.6875 C 15.519531 -30.6875 13.609375 -30.253906 12.015625 -29.390625 C 10.421875 -28.523438 8.957031 -27.238281 7.625 -25.53125 L 7 -25.53125 L 4.5 -29.0625 C 5.957031 -30.914062 7.8125 -32.390625 10.0625 -33.484375 C 12.3125 -34.578125 14.875 -35.125 17.75 -35.125 C 21.8125 -35.125 24.804688 -34.234375 26.734375 -32.453125 C 28.660156 -30.671875 29.625 -28.207031 29.625 -25.0625 L 29.625 -6.78125 C 29.625 -4.863281 30.4375 -3.90625 32.0625 -3.90625 C 32.601562 -3.90625 33.125 -4 33.625 -4.1875 L 34.0625 -4.0625 L 34.65625 -0.53125 C 34.28125 -0.28125 33.785156 -0.0859375 33.171875 0.046875 C 32.554688 0.179688 31.925781 0.25 31.28125 0.25 C 29.382812 0.25 27.953125 -0.164062 26.984375 -1 C 26.015625 -1.832031 25.394531 -3.0625 25.125 -4.6875 L 24.46875 -4.75 C 23.488281 -2.9375 22.164062 -1.582031 20.5 -0.6875 C 18.832031 0.207031 16.738281 0.65625 14.21875 0.65625 Z M 15.34375 -3.40625 C 17.257812 -3.40625 18.921875 -3.847656 20.328125 -4.734375 C 21.734375 -5.617188 22.8125 -6.863281 23.5625 -8.46875 C 24.3125 -10.070312 24.6875 -11.925781 24.6875 -14.03125 L 24.6875 -18.40625 L 24.09375 -18.53125 C 23.320312 -17.988281 22.382812 -17.535156 21.28125 -17.171875 C 20.175781 -16.804688 18.632812 -16.476562 16.65625 -16.1875 C 14.65625 -15.914062 13.066406 -15.5 11.890625 -14.9375 C 10.710938 -14.375 9.875 -13.660156 9.375 -12.796875 C 8.875 -11.929688 8.625 -10.863281 8.625 -9.59375 C 8.625 -7.570312 9.21875 -6.035156 10.40625 -4.984375 C 11.59375 -3.929688 13.238281 -3.40625 15.34375 -3.40625 Z M 15.34375 -3.40625 "/></g></g></g><g fill="#000000" fill-opacity="1"><g transform="translate(678.582519, 846.213939)"><g><path d="M 6 0 L 6 -34.46875 L 10.84375 -34.46875 L 10.84375 -29.0625 L 11.5 -28.90625 C 13.101562 -32.820312 16.125 -34.78125 20.5625 -34.78125 C 22.914062 -34.78125 24.675781 -34.351562 25.84375 -33.5 L 24.53125 -29.1875 L 23.90625 -29.0625 C 22.613281 -29.707031 21.195312 -30.03125 19.65625 -30.03125 C 16.90625 -30.03125 14.789062 -29 13.3125 -26.9375 C 11.832031 -24.875 11.09375 -21.53125 11.09375 -16.90625 L 11.09375 0 Z M 6 0 "/></g></g></g><g fill="#000000" fill-opacity="1"><g transform="translate(704.549664, 846.213939)"><g><path d="M 14.21875 0.65625 C 10.820312 0.65625 8.171875 -0.226562 6.265625 -2 C 4.359375 -3.769531 3.40625 -6.300781 3.40625 -9.59375 C 3.40625 -11.632812 3.828125 -13.359375 4.671875 -14.765625 C 5.515625 -16.171875 6.820312 -17.316406 8.59375 -18.203125 C 10.363281 -19.085938 12.675781 -19.769531 15.53125 -20.25 C 18.03125 -20.664062 19.929688 -21.132812 21.234375 -21.65625 C 22.535156 -22.175781 23.410156 -22.757812 23.859375 -23.40625 C 24.304688 -24.050781 24.53125 -24.863281 24.53125 -25.84375 C 24.53125 -27.40625 23.992188 -28.601562 22.921875 -29.4375 C 21.847656 -30.269531 20.125 -30.6875 17.75 -30.6875 C 15.519531 -30.6875 13.609375 -30.253906 12.015625 -29.390625 C 10.421875 -28.523438 8.957031 -27.238281 7.625 -25.53125 L 7 -25.53125 L 4.5 -29.0625 C 5.957031 -30.914062 7.8125 -32.390625 10.0625 -33.484375 C 12.3125 -34.578125 14.875 -35.125 17.75 -35.125 C 21.8125 -35.125 24.804688 -34.234375 26.734375 -32.453125 C 28.660156 -30.671875 29.625 -28.207031 29.625 -25.0625 L 29.625 -6.78125 C 29.625 -4.863281 30.4375 -3.90625 32.0625 -3.90625 C 32.601562 -3.90625 33.125 -4 33.625 -4.1875 L 34.0625 -4.0625 L 34.65625 -0.53125 C 34.28125 -0.28125 33.785156 -0.0859375 33.171875 0.046875 C 32.554688 0.179688 31.925781 0.25 31.28125 0.25 C 29.382812 0.25 27.953125 -0.164062 26.984375 -1 C 26.015625 -1.832031 25.394531 -3.0625 25.125 -4.6875 L 24.46875 -4.75 C 23.488281 -2.9375 22.164062 -1.582031 20.5 -0.6875 C 18.832031 0.207031 16.738281 0.65625 14.21875 0.65625 Z M 15.34375 -3.40625 C 17.257812 -3.40625 18.921875 -3.847656 20.328125 -4.734375 C 21.734375 -5.617188 22.8125 -6.863281 23.5625 -8.46875 C 24.3125 -10.070312 24.6875 -11.925781 24.6875 -14.03125 L 24.6875 -18.40625 L 24.09375 -18.53125 C 23.320312 -17.988281 22.382812 -17.535156 21.28125 -17.171875 C 20.175781 -16.804688 18.632812 -16.476562 16.65625 -16.1875 C 14.65625 -15.914062 13.066406 -15.5 11.890625 -14.9375 C 10.710938 -14.375 9.875 -13.660156 9.375 -12.796875 C 8.875 -11.929688 8.625 -10.863281 8.625 -9.59375 C 8.625 -7.570312 9.21875 -6.035156 10.40625 -4.984375 C 11.59375 -3.929688 13.238281 -3.40625 15.34375 -3.40625 Z M 15.34375 -3.40625 "/></g></g></g><g fill="#000000" fill-opacity="1"><g transform="translate(740.203752, 846.213939)"><g><path d="M 17.75 14.625 C 12.3125 14.625 8.34375 13.71875 5.84375 11.90625 C 3.34375 10.09375 2.09375 7.6875 2.09375 4.6875 C 2.09375 2.75 2.675781 1.207031 3.84375 0.0625 C 5.007812 -1.082031 6.707031 -1.90625 8.9375 -2.40625 L 8.9375 -3.0625 C 7.875 -3.664062 7.078125 -4.375 6.546875 -5.1875 C 6.015625 -6 5.75 -6.96875 5.75 -8.09375 C 5.75 -9.425781 6.171875 -10.507812 7.015625 -11.34375 C 7.859375 -12.175781 9.113281 -12.8125 10.78125 -13.25 L 10.78125 -13.90625 C 7.03125 -15.882812 5.15625 -19.101562 5.15625 -23.5625 C 5.15625 -25.8125 5.664062 -27.8125 6.6875 -29.5625 C 7.707031 -31.3125 9.164062 -32.675781 11.0625 -33.65625 C 12.957031 -34.632812 15.164062 -35.125 17.6875 -35.125 C 20.582031 -35.125 23 -34.488281 24.9375 -33.21875 C 25.664062 -34.03125 26.210938 -34.898438 26.578125 -35.828125 C 26.941406 -36.753906 27.175781 -37.800781 27.28125 -38.96875 L 27.9375 -39.375 L 32.125 -38.375 C 31.914062 -36.625 31.390625 -35.144531 30.546875 -33.9375 C 29.703125 -32.726562 28.507812 -31.726562 26.96875 -30.9375 L 26.96875 -30.28125 C 28.070312 -29.40625 28.890625 -28.378906 29.421875 -27.203125 C 29.953125 -26.023438 30.21875 -24.65625 30.21875 -23.09375 C 30.21875 -20.925781 29.695312 -18.976562 28.65625 -17.25 C 27.613281 -15.519531 26.144531 -14.160156 24.25 -13.171875 C 22.351562 -12.179688 20.164062 -11.6875 17.6875 -11.6875 C 17.394531 -11.6875 16.875 -11.707031 16.125 -11.75 C 15.289062 -11.789062 14.675781 -11.8125 14.28125 -11.8125 C 13.195312 -11.8125 12.332031 -11.53125 11.6875 -10.96875 C 11.039062 -10.40625 10.71875 -9.6875 10.71875 -8.8125 C 10.71875 -7.726562 11.066406 -6.929688 11.765625 -6.421875 C 12.460938 -5.910156 13.613281 -5.625 15.21875 -5.5625 L 23.375 -5.28125 C 26.894531 -5.15625 29.503906 -4.335938 31.203125 -2.828125 C 32.898438 -1.316406 33.75 0.820312 33.75 3.59375 C 33.75 5.65625 33.195312 7.515625 32.09375 9.171875 C 30.988281 10.828125 29.238281 12.148438 26.84375 13.140625 C 24.445312 14.128906 21.414062 14.625 17.75 14.625 Z M 17.6875 -16.0625 C 20.125 -16.0625 22.007812 -16.695312 23.34375 -17.96875 C 24.675781 -19.238281 25.34375 -21.019531 25.34375 -23.3125 C 25.34375 -25.6875 24.679688 -27.519531 23.359375 -28.8125 C 22.035156 -30.101562 20.144531 -30.75 17.6875 -30.75 C 15.226562 -30.75 13.351562 -30.109375 12.0625 -28.828125 C 10.769531 -27.546875 10.125 -25.707031 10.125 -23.3125 C 10.125 -21 10.769531 -19.210938 12.0625 -17.953125 C 13.351562 -16.691406 15.226562 -16.0625 17.6875 -16.0625 Z M 17.75 10.25 C 20.289062 10.25 22.367188 9.96875 23.984375 9.40625 C 25.597656 8.84375 26.757812 8.097656 27.46875 7.171875 C 28.175781 6.242188 28.53125 5.207031 28.53125 4.0625 C 28.53125 3.039062 28.335938 2.21875 27.953125 1.59375 C 27.566406 0.96875 26.945312 0.5 26.09375 0.1875 C 25.238281 -0.125 24.070312 -0.320312 22.59375 -0.40625 L 14.875 -0.78125 L 13.78125 -0.78125 C 9.46875 -0.71875 7.3125 0.957031 7.3125 4.25 C 7.3125 8.25 10.789062 10.25 17.75 10.25 Z M 17.75 10.25 "/></g></g></g><g fill="#000000" fill-opacity="1"><g transform="translate(775.514106, 846.213939)"><g><path d="M 6 0 L 6 -34.46875 L 10.84375 -34.46875 L 10.84375 -29.0625 L 11.5 -28.90625 C 13.101562 -32.820312 16.125 -34.78125 20.5625 -34.78125 C 22.914062 -34.78125 24.675781 -34.351562 25.84375 -33.5 L 24.53125 -29.1875 L 23.90625 -29.0625 C 22.613281 -29.707031 21.195312 -30.03125 19.65625 -30.03125 C 16.90625 -30.03125 14.789062 -29 13.3125 -26.9375 C 11.832031 -24.875 11.09375 -21.53125 11.09375 -16.90625 L 11.09375 0 Z M 6 0 "/></g></g></g><g fill="#000000" fill-opacity="1"><g transform="translate(801.481251, 846.213939)"><g><path d="M 14.21875 0.65625 C 10.820312 0.65625 8.171875 -0.226562 6.265625 -2 C 4.359375 -3.769531 3.40625 -6.300781 3.40625 -9.59375 C 3.40625 -11.632812 3.828125 -13.359375 4.671875 -14.765625 C 5.515625 -16.171875 6.820312 -17.316406 8.59375 -18.203125 C 10.363281 -19.085938 12.675781 -19.769531 15.53125 -20.25 C 18.03125 -20.664062 19.929688 -21.132812 21.234375 -21.65625 C 22.535156 -22.175781 23.410156 -22.757812 23.859375 -23.40625 C 24.304688 -24.050781 24.53125 -24.863281 24.53125 -25.84375 C 24.53125 -27.40625 23.992188 -28.601562 22.921875 -29.4375 C 21.847656 -30.269531 20.125 -30.6875 17.75 -30.6875 C 15.519531 -30.6875 13.609375 -30.253906 12.015625 -29.390625 C 10.421875 -28.523438 8.957031 -27.238281 7.625 -25.53125 L 7 -25.53125 L 4.5 -29.0625 C 5.957031 -30.914062 7.8125 -32.390625 10.0625 -33.484375 C 12.3125 -34.578125 14.875 -35.125 17.75 -35.125 C 21.8125 -35.125 24.804688 -34.234375 26.734375 -32.453125 C 28.660156 -30.671875 29.625 -28.207031 29.625 -25.0625 L 29.625 -6.78125 C 29.625 -4.863281 30.4375 -3.90625 32.0625 -3.90625 C 32.601562 -3.90625 33.125 -4 33.625 -4.1875 L 34.0625 -4.0625 L 34.65625 -0.53125 C 34.28125 -0.28125 33.785156 -0.0859375 33.171875 0.046875 C 32.554688 0.179688 31.925781 0.25 31.28125 0.25 C 29.382812 0.25 27.953125 -0.164062 26.984375 -1 C 26.015625 -1.832031 25.394531 -3.0625 25.125 -4.6875 L 24.46875 -4.75 C 23.488281 -2.9375 22.164062 -1.582031 20.5 -0.6875 C 18.832031 0.207031 16.738281 0.65625 14.21875 0.65625 Z M 15.34375 -3.40625 C 17.257812 -3.40625 18.921875 -3.847656 20.328125 -4.734375 C 21.734375 -5.617188 22.8125 -6.863281 23.5625 -8.46875 C 24.3125 -10.070312 24.6875 -11.925781 24.6875 -14.03125 L 24.6875 -18.40625 L 24.09375 -18.53125 C 23.320312 -17.988281 22.382812 -17.535156 21.28125 -17.171875 C 20.175781 -16.804688 18.632812 -16.476562 16.65625 -16.1875 C 14.65625 -15.914062 13.066406 -15.5 11.890625 -14.9375 C 10.710938 -14.375 9.875 -13.660156 9.375 -12.796875 C 8.875 -11.929688 8.625 -10.863281 8.625 -9.59375 C 8.625 -7.570312 9.21875 -6.035156 10.40625 -4.984375 C 11.59375 -3.929688 13.238281 -3.40625 15.34375 -3.40625 Z M 15.34375 -3.40625 "/></g></g></g><g fill="#000000" fill-opacity="1"><g transform="translate(837.135316, 846.213939)"><g><path d="M 6 13.96875 L 6 -34.46875 L 11.09375 -34.46875 L 11.09375 -29.3125 L 11.75 -29.1875 C 14.3125 -33.144531 18.070312 -35.125 23.03125 -35.125 C 25.90625 -35.125 28.414062 -34.46875 30.5625 -33.15625 C 32.707031 -31.84375 34.375 -29.847656 35.5625 -27.171875 C 36.75 -24.492188 37.34375 -21.175781 37.34375 -17.21875 C 37.34375 -13.28125 36.71875 -9.976562 35.46875 -7.3125 C 34.21875 -4.644531 32.488281 -2.648438 30.28125 -1.328125 C 28.070312 -0.00390625 25.53125 0.65625 22.65625 0.65625 C 20.320312 0.65625 18.25 0.25 16.4375 -0.5625 C 14.625 -1.375 13.0625 -2.707031 11.75 -4.5625 L 11.09375 -4.4375 L 11.09375 13.96875 Z M 21.53125 -3.90625 C 28.507812 -3.90625 32 -8.34375 32 -17.21875 C 32 -26.113281 28.507812 -30.5625 21.53125 -30.5625 C 19.488281 -30.5625 17.6875 -30.09375 16.125 -29.15625 C 14.5625 -28.21875 13.332031 -26.753906 12.4375 -24.765625 C 11.539062 -22.773438 11.09375 -20.257812 11.09375 -17.21875 C 11.09375 -14.195312 11.539062 -11.691406 12.4375 -9.703125 C 13.332031 -7.710938 14.5625 -6.25 16.125 -5.3125 C 17.6875 -4.375 19.488281 -3.90625 21.53125 -3.90625 Z M 21.53125 -3.90625 "/></g></g></g><g fill="#000000" fill-opacity="1"><g transform="translate(878.257779, 846.213939)"><g><path d="M 6 0 L 6 -48.3125 L 11.09375 -48.3125 L 11.09375 -29.5625 L 11.75 -29.4375 C 14.207031 -33.226562 17.757812 -35.125 22.40625 -35.125 C 26.550781 -35.125 29.554688 -34.066406 31.421875 -31.953125 C 33.285156 -29.835938 34.21875 -26.582031 34.21875 -22.1875 L 34.21875 0 L 29.125 0 L 29.125 -22.0625 C 29.125 -24.144531 28.859375 -25.816406 28.328125 -27.078125 C 27.796875 -28.335938 26.972656 -29.253906 25.859375 -29.828125 C 24.742188 -30.398438 23.28125 -30.6875 21.46875 -30.6875 C 18.34375 -30.6875 15.832031 -29.675781 13.9375 -27.65625 C 12.039062 -25.632812 11.09375 -22.3125 11.09375 -17.6875 L 11.09375 0 Z M 6 0 "/></g></g></g><g fill="#000000" fill-opacity="1"><g transform="translate(917.942865, 846.213939)"><g/></g></g><g fill="#000000" fill-opacity="1"><g transform="translate(933.629417, 846.213939)"><g><path d="M 23.3125 -5.46875 L 24.9375 -1.8125 C 24.125 -1 23.054688 -0.382812 21.734375 0.03125 C 20.410156 0.445312 18.976562 0.65625 17.4375 0.65625 C 10.851562 0.65625 7.5625 -2.675781 7.5625 -9.34375 L 7.5625 -30.3125 L 1.5625 -30.3125 L 1.5625 -34.5 L 7.5625 -34.5 L 7.5625 -41.78125 L 12.65625 -42.625 L 12.65625 -34.5 L 23.75 -34.5 L 23.75 -30.3125 L 12.65625 -30.3125 L 12.65625 -9.84375 C 12.65625 -5.882812 14.375 -3.90625 17.8125 -3.90625 C 19.6875 -3.90625 21.300781 -4.425781 22.65625 -5.46875 Z M 23.3125 -5.46875 "/></g></g></g><g fill="#000000" fill-opacity="1"><g transform="translate(959.471594, 846.213939)"><g><path d="M 32.84375 -16.0625 L 9.15625 -16.0625 C 9.300781 -11.875 10.304688 -8.800781 12.171875 -6.84375 C 14.035156 -4.882812 16.59375 -3.90625 19.84375 -3.90625 C 22.300781 -3.90625 24.28125 -4.34375 25.78125 -5.21875 C 27.28125 -6.09375 28.457031 -7.46875 29.3125 -9.34375 L 29.96875 -9.34375 L 33.28125 -7.375 C 32.28125 -4.875 30.679688 -2.910156 28.484375 -1.484375 C 26.285156 -0.0546875 23.40625 0.65625 19.84375 0.65625 C 16.507812 0.65625 13.644531 0 11.25 -1.3125 C 8.851562 -2.625 7.007812 -4.613281 5.71875 -7.28125 C 4.425781 -9.945312 3.78125 -13.257812 3.78125 -17.21875 C 3.78125 -21.132812 4.460938 -24.4375 5.828125 -27.125 C 7.191406 -29.8125 9.054688 -31.816406 11.421875 -33.140625 C 13.785156 -34.460938 16.488281 -35.125 19.53125 -35.125 C 23.945312 -35.125 27.394531 -33.878906 29.875 -31.390625 C 32.351562 -28.898438 33.601562 -25.207031 33.625 -20.3125 C 33.625 -18.394531 33.582031 -17.101562 33.5 -16.4375 Z M 28.59375 -20.3125 C 28.507812 -23.976562 27.695312 -26.644531 26.15625 -28.3125 C 24.613281 -29.976562 22.40625 -30.8125 19.53125 -30.8125 C 16.507812 -30.8125 14.140625 -29.972656 12.421875 -28.296875 C 10.703125 -26.617188 9.65625 -23.957031 9.28125 -20.3125 Z M 28.59375 -20.3125 "/></g></g></g><g fill="#000000" fill-opacity="1"><g transform="translate(995.688113, 846.213939)"><g><path d="M 7.1875 0 L 1.5625 0 L 12.21875 -17.875 L 2.09375 -34.46875 L 7.84375 -34.46875 L 15.8125 -21.21875 L 16.53125 -21.21875 L 24.53125 -34.46875 L 30.03125 -34.46875 L 20.15625 -17.875 L 30.5625 0 L 24.8125 0 L 16.3125 -14.5625 L 15.59375 -14.5625 Z M 7.1875 0 "/></g></g></g><g fill="#000000" fill-opacity="1"><g transform="translate(1027.811126, 846.213939)"><g><path d="M 23.3125 -5.46875 L 24.9375 -1.8125 C 24.125 -1 23.054688 -0.382812 21.734375 0.03125 C 20.410156 0.445312 18.976562 0.65625 17.4375 0.65625 C 10.851562 0.65625 7.5625 -2.675781 7.5625 -9.34375 L 7.5625 -30.3125 L 1.5625 -30.3125 L 1.5625 -34.5 L 7.5625 -34.5 L 7.5625 -41.78125 L 12.65625 -42.625 L 12.65625 -34.5 L 23.75 -34.5 L 23.75 -30.3125 L 12.65625 -30.3125 L 12.65625 -9.84375 C 12.65625 -5.882812 14.375 -3.90625 17.8125 -3.90625 C 19.6875 -3.90625 21.300781 -4.425781 22.65625 -5.46875 Z M 23.3125 -5.46875 "/></g></g></g></svg>
