<svg xmlns="http://www.w3.org/2000/svg" xmlns:xlink="http://www.w3.org/1999/xlink" width="2000" zoomAndPan="magnify" viewBox="0 0 1500 1499.999933" height="2000" preserveAspectRatio="xMidYMid meet" version="1.0"><defs><g/><clipPath id="f9d4f0e060"><path d="M 12 242.503906 L 1487.824219 242.503906 L 1487.824219 1257.253906 L 12 1257.253906 Z M 12 242.503906 " clip-rule="nonzero"/></clipPath></defs><g clip-path="url(#f9d4f0e060)"><path fill="#ffffff" d="M 39.296875 1031.699219 L 152.996094 1026.703125 L 240.753906 1045.957031 L 192.816406 952.621094 L 192.863281 839.546875 L 231.082031 763.535156 L 355.769531 710.332031 L 482.371094 754.269531 L 547.804688 828.925781 L 559.578125 915.554688 L 710.707031 812.800781 L 756.984375 653.140625 L 630.316406 544.40625 L 578.851562 446.066406 L 714.800781 363.675781 L 907.1875 339.367188 L 1059.871094 261.304688 L 1269.96875 273.449219 L 1436.445312 242.503906 L 1487.886719 317.628906 L 1460.09375 482.539062 L 1374 607.582031 L 1320.160156 808.484375 L 1232.441406 956.558594 L 1128.882812 971.910156 L 1011.554688 862.742188 L 865.882812 992.738281 L 717.589844 1042.796875 L 607.085938 1154.539062 L 422.601562 1193.128906 L 279.265625 1257.5 L 148.472656 1235.941406 L 14.90625 1182.957031 L 12.105469 1116.027344 Z M 39.296875 1031.699219 " fill-opacity="1" fill-rule="nonzero"/></g><path fill="#000000" d="M 682.859375 494.113281 C 682.667969 493.578125 682.496094 493.035156 682.347656 492.484375 C 679.113281 480.660156 686.089844 468.433594 697.914062 465.203125 C 993.582031 384.378906 1386.667969 313.597656 1402.011719 307.898438 C 1402.84375 307.542969 1403.699219 307.238281 1404.558594 306.992188 C 1405.339844 306.765625 1406.128906 306.585938 1406.917969 306.449219 C 1407.238281 306.390625 1407.558594 306.34375 1407.878906 306.300781 C 1409.867188 306.046875 1411.855469 306.066406 1413.796875 306.339844 C 1416.703125 306.75 1419.402344 307.703125 1421.796875 309.085938 C 1422.945312 309.746094 1424.042969 310.511719 1425.074219 311.386719 C 1425.832031 312.027344 1426.550781 312.722656 1427.222656 313.472656 C 1428.214844 314.574219 1429.109375 315.789062 1429.878906 317.109375 C 1430.828125 318.726562 1431.554688 320.433594 1432.058594 322.179688 C 1432.285156 322.960938 1432.464844 323.75 1432.601562 324.539062 C 1432.65625 324.859375 1432.703125 325.179688 1432.746094 325.503906 C 1433.003906 327.492188 1432.984375 329.480469 1432.707031 331.417969 C 1432.707031 331.421875 1432.707031 331.421875 1432.707031 331.421875 C 1432.585938 332.273438 1432.417969 333.113281 1432.203125 333.9375 C 1431.734375 335.730469 1431.046875 337.472656 1430.136719 339.117188 C 1429.035156 341.984375 1427.554688 345.589844 1425.628906 349.84375 C 1395.324219 416.8125 1243.871094 736.296875 1184.203125 863.703125 C 1179.878906 872.933594 1169.992188 877.804688 1160.402344 876.1875 C 1155.164062 876.183594 1149.910156 874.335938 1145.691406 870.59375 C 1100.8125 830.765625 1062.113281 797.257812 1030.210938 769.957031 C 984.492188 788.601562 935.742188 816.601562 839.128906 854.464844 C 829.21875 858.347656 818.183594 854.609375 812.523438 846.082031 C 808.871094 841.65625 806.925781 835.824219 807.5625 829.667969 C 818.121094 727.472656 832.335938 649.628906 838.058594 619.75 C 791.734375 591.488281 722.496094 533.648438 690.5 507.105469 C 686.355469 503.664062 683.777344 499.027344 682.859375 494.113281 Z M 1260.472656 381.507812 C 1124.589844 409.136719 923.878906 451.394531 748.636719 497.582031 C 783.488281 526.226562 830.707031 563.867188 863.972656 583.507812 C 901.785156 563.761719 1064.390625 482.792969 1260.472656 381.507812 Z M 1155.609375 820.058594 C 1207.097656 710.4375 1301.53125 510.914062 1353.628906 399.550781 C 1237.050781 485.738281 1089.53125 585.820312 975.78125 665.609375 C 1005.347656 690.898438 1067.113281 742.019531 1155.609375 820.058594 Z M 992.503906 737.855469 C 971.015625 719.648438 954.394531 705.679688 942.996094 695.886719 C 935.953125 706.582031 927.03125 721.675781 917.351562 737.78125 C 907.875 753.558594 897.957031 770.289062 888.65625 785.867188 C 932.863281 766.503906 964.390625 750.53125 992.503906 737.855469 Z M 882.484375 623.953125 C 879.085938 641.519531 871.09375 683.871094 862.902344 742.480469 C 868.347656 733.238281 873.871094 723.902344 879.277344 714.90625 C 894.726562 689.1875 909.773438 666.335938 919.6875 654.117188 C 921.269531 650.875 923.667969 647.976562 926.816406 645.746094 C 995.320312 597.367188 1079.085938 539.953125 1161.804688 482.117188 C 1017.839844 555.671875 908.550781 610.199219 882.484375 623.953125 Z M 882.484375 623.953125 " fill-opacity="1" fill-rule="evenodd"/><path fill="#000000" d="M 391.5625 1020.945312 C 394.777344 1016.4375 397.792969 1011.96875 400.605469 1007.574219 C 407.207031 997.25 420.953125 994.226562 431.28125 1000.828125 C 441.605469 1007.429688 444.628906 1021.175781 438.027344 1031.5 C 431.738281 1041.335938 424.554688 1051.496094 416.503906 1061.636719 C 409.019531 1071.070312 395.386719 1072.792969 385.808594 1065.617188 C 385.113281 1065.476562 384.417969 1065.296875 383.726562 1065.089844 C 371.6875 1061.414062 359.234375 1056.425781 347.328125 1049.726562 C 336.648438 1043.714844 332.855469 1030.160156 338.863281 1019.476562 C 344.875 1008.792969 358.429688 1005 369.113281 1011.011719 C 376.445312 1015.136719 384.066406 1018.378906 391.5625 1020.945312 Z M 115.285156 1151.140625 C 104.015625 1146.316406 98.785156 1133.25 103.605469 1121.984375 C 108.429688 1110.714844 121.496094 1105.480469 132.765625 1110.304688 C 137.757812 1112.445312 142.703125 1114.367188 147.597656 1116.089844 C 159.160156 1120.15625 165.246094 1132.851562 161.175781 1144.410156 C 157.109375 1155.972656 144.417969 1162.058594 132.855469 1157.992188 C 127.058594 1155.949219 121.203125 1153.675781 115.285156 1151.140625 Z M 213.644531 1172.09375 C 201.386719 1172.160156 191.378906 1162.261719 191.3125 1150.003906 C 191.246094 1137.746094 201.144531 1127.742188 213.402344 1127.675781 C 223.964844 1127.621094 234.195312 1126.605469 244.070312 1124.785156 C 256.125 1122.554688 267.71875 1130.535156 269.949219 1142.585938 C 272.175781 1154.640625 264.195312 1166.238281 252.144531 1168.460938 C 239.742188 1170.753906 226.902344 1172.023438 213.644531 1172.09375 Z M 328.90625 1139.363281 C 318.332031 1145.570312 304.714844 1142.019531 298.511719 1131.449219 C 292.308594 1120.875 295.855469 1107.253906 306.429688 1101.054688 C 315.667969 1095.632812 324.433594 1089.59375 332.703125 1083.125 C 342.355469 1075.574219 356.328125 1077.289062 363.878906 1086.945312 C 371.429688 1096.597656 369.71875 1110.570312 360.0625 1118.121094 C 350.257812 1125.785156 339.863281 1132.9375 328.90625 1139.363281 Z M 470.96875 954.613281 C 469.230469 966.746094 457.96875 975.1875 445.835938 973.453125 C 433.703125 971.714844 425.261719 960.453125 426.996094 948.320312 C 428.566406 937.359375 429.101562 927.136719 428.722656 917.664062 C 428.238281 905.417969 437.785156 895.078125 450.035156 894.589844 C 462.28125 894.105469 472.621094 903.652344 473.109375 915.902344 C 473.585938 927.863281 472.949219 940.773438 470.96875 954.613281 Z M 444.402344 833.085938 C 452.195312 842.542969 450.84375 856.554688 441.386719 864.347656 C 431.925781 872.144531 417.914062 870.792969 410.121094 861.332031 C 404.585938 854.617188 398.09375 849.621094 391.097656 846.585938 C 379.851562 841.707031 374.683594 828.613281 379.5625 817.367188 C 384.441406 806.125 397.535156 800.957031 408.777344 805.835938 C 421.820312 811.496094 434.089844 820.570312 444.402344 833.085938 Z M 315.398438 824.140625 C 324.113281 815.519531 338.1875 815.589844 346.808594 824.300781 C 355.433594 833.015625 355.359375 847.089844 346.648438 855.710938 C 341.03125 861.273438 336.207031 868.550781 332.394531 877.488281 C 327.582031 888.761719 314.523438 894.003906 303.25 889.191406 C 291.976562 884.382812 286.730469 871.320312 291.542969 860.046875 C 297.855469 845.253906 306.09375 833.355469 315.398438 824.140625 Z M 279.300781 944.082031 C 278.214844 931.875 287.246094 921.078125 299.453125 919.992188 C 311.664062 918.90625 322.457031 927.9375 323.546875 940.144531 C 324.464844 950.464844 326.632812 959.617188 329.839844 967.722656 C 334.347656 979.125 328.757812 992.035156 317.359375 996.550781 C 305.960938 1001.058594 293.046875 995.464844 288.535156 984.066406 C 283.882812 972.308594 280.632812 959.050781 279.300781 944.082031 Z M 465.703125 1074.484375 C 453.476562 1075.375 442.828125 1066.171875 441.9375 1053.945312 C 441.046875 1041.722656 450.25 1031.074219 462.472656 1030.179688 C 473.066406 1029.414062 483.632812 1027.898438 494.113281 1025.78125 C 506.128906 1023.351562 517.855469 1031.132812 520.285156 1043.148438 C 522.714844 1055.160156 514.933594 1066.890625 502.917969 1069.316406 C 490.585938 1071.8125 478.160156 1073.574219 465.703125 1074.484375 Z M 578.386719 1045.265625 C 567.117188 1050.09375 554.050781 1044.867188 549.222656 1033.597656 C 544.394531 1022.332031 549.621094 1009.265625 560.886719 1004.4375 C 571.113281 1000.054688 581.132812 995.285156 590.878906 990.25 C 601.773438 984.621094 615.183594 988.898438 620.804688 999.789062 C 626.433594 1010.679688 622.15625 1024.085938 611.265625 1029.714844 C 600.578125 1035.238281 589.59375 1040.460938 578.386719 1045.265625 Z M 677.667969 989.800781 C 667.550781 996.71875 653.71875 994.128906 646.792969 984.015625 C 639.875 973.898438 642.464844 960.066406 652.578125 953.140625 C 662.261719 946.515625 671.40625 939.882812 679.925781 933.429688 C 689.695312 926.027344 703.636719 927.945312 711.039062 937.714844 C 718.441406 947.484375 716.523438 961.429688 706.753906 968.828125 C 697.691406 975.699219 687.964844 982.75 677.667969 989.800781 Z M 765.761719 919.214844 C 756.824219 927.609375 742.761719 927.167969 734.367188 918.230469 C 725.972656 909.300781 726.414062 895.230469 735.351562 886.835938 C 740.835938 881.6875 744.769531 877.765625 746.9375 875.503906 C 755.410156 866.652344 769.484375 866.339844 778.335938 874.816406 C 787.195312 883.292969 787.503906 897.363281 779.027344 906.21875 C 776.546875 908.808594 772.050781 913.3125 765.761719 919.214844 Z M 765.761719 919.214844 " fill-opacity="1" fill-rule="evenodd"/><g fill="#ffffff" fill-opacity="1"><g transform="translate(1060.708886, 687.791465)"><g><path d="M 14.21875 0.65625 C 10.820312 0.65625 8.171875 -0.226562 6.265625 -2 C 4.359375 -3.769531 3.40625 -6.300781 3.40625 -9.59375 C 3.40625 -11.632812 3.828125 -13.359375 4.671875 -14.765625 C 5.515625 -16.171875 6.820312 -17.316406 8.59375 -18.203125 C 10.363281 -19.085938 12.675781 -19.769531 15.53125 -20.25 C 18.03125 -20.664062 19.929688 -21.132812 21.234375 -21.65625 C 22.535156 -22.175781 23.410156 -22.757812 23.859375 -23.40625 C 24.304688 -24.050781 24.53125 -24.863281 24.53125 -25.84375 C 24.53125 -27.40625 23.992188 -28.601562 22.921875 -29.4375 C 21.847656 -30.269531 20.125 -30.6875 17.75 -30.6875 C 15.519531 -30.6875 13.609375 -30.253906 12.015625 -29.390625 C 10.421875 -28.523438 8.957031 -27.238281 7.625 -25.53125 L 7 -25.53125 L 4.5 -29.0625 C 5.957031 -30.914062 7.8125 -32.390625 10.0625 -33.484375 C 12.3125 -34.578125 14.875 -35.125 17.75 -35.125 C 21.8125 -35.125 24.804688 -34.234375 26.734375 -32.453125 C 28.660156 -30.671875 29.625 -28.207031 29.625 -25.0625 L 29.625 -6.78125 C 29.625 -4.863281 30.4375 -3.90625 32.0625 -3.90625 C 32.601562 -3.90625 33.125 -4 33.625 -4.1875 L 34.0625 -4.0625 L 34.65625 -0.53125 C 34.28125 -0.28125 33.785156 -0.0859375 33.171875 0.046875 C 32.554688 0.179688 31.925781 0.25 31.28125 0.25 C 29.382812 0.25 27.953125 -0.164062 26.984375 -1 C 26.015625 -1.832031 25.394531 -3.0625 25.125 -4.6875 L 24.46875 -4.75 C 23.488281 -2.9375 22.164062 -1.582031 20.5 -0.6875 C 18.832031 0.207031 16.738281 0.65625 14.21875 0.65625 Z M 15.34375 -3.40625 C 17.257812 -3.40625 18.921875 -3.847656 20.328125 -4.734375 C 21.734375 -5.617188 22.8125 -6.863281 23.5625 -8.46875 C 24.3125 -10.070312 24.6875 -11.925781 24.6875 -14.03125 L 24.6875 -18.40625 L 24.09375 -18.53125 C 23.320312 -17.988281 22.382812 -17.535156 21.28125 -17.171875 C 20.175781 -16.804688 18.632812 -16.476562 16.65625 -16.1875 C 14.65625 -15.914062 13.066406 -15.5 11.890625 -14.9375 C 10.710938 -14.375 9.875 -13.660156 9.375 -12.796875 C 8.875 -11.929688 8.625 -10.863281 8.625 -9.59375 C 8.625 -7.570312 9.21875 -6.035156 10.40625 -4.984375 C 11.59375 -3.929688 13.238281 -3.40625 15.34375 -3.40625 Z M 15.34375 -3.40625 "/></g></g></g><g fill="#ffffff" fill-opacity="1"><g transform="translate(1096.362963, 687.791465)"><g><path d="M 15.71875 0.65625 C 13.550781 0.65625 11.546875 0.367188 9.703125 -0.203125 C 7.859375 -0.773438 6.300781 -1.5625 5.03125 -2.5625 C 3.757812 -3.5625 2.863281 -4.6875 2.34375 -5.9375 L 5.34375 -9.0625 L 6 -9.0625 C 7.125 -7.351562 8.476562 -6.066406 10.0625 -5.203125 C 11.644531 -4.335938 13.53125 -3.90625 15.71875 -3.90625 C 18.257812 -3.90625 20.191406 -4.398438 21.515625 -5.390625 C 22.835938 -6.378906 23.5 -7.757812 23.5 -9.53125 C 23.5 -10.882812 23.097656 -12.003906 22.296875 -12.890625 C 21.492188 -13.773438 20.195312 -14.4375 18.40625 -14.875 L 12.59375 -16.3125 C 9.488281 -17.0625 7.222656 -18.25 5.796875 -19.875 C 4.367188 -21.5 3.65625 -23.507812 3.65625 -25.90625 C 3.65625 -27.78125 4.132812 -29.410156 5.09375 -30.796875 C 6.050781 -32.179688 7.429688 -33.25 9.234375 -34 C 11.035156 -34.75 13.175781 -35.125 15.65625 -35.125 C 18.820312 -35.125 21.316406 -34.679688 23.140625 -33.796875 C 24.960938 -32.910156 26.382812 -31.675781 27.40625 -30.09375 L 24.53125 -27.28125 L 23.90625 -27.28125 C 22.800781 -28.550781 21.597656 -29.46875 20.296875 -30.03125 C 18.992188 -30.59375 17.445312 -30.875 15.65625 -30.875 C 13.382812 -30.875 11.644531 -30.46875 10.4375 -29.65625 C 9.226562 -28.84375 8.625 -27.664062 8.625 -26.125 C 8.625 -24.726562 9.050781 -23.601562 9.90625 -22.75 C 10.757812 -21.894531 12.25 -21.207031 14.375 -20.6875 L 20.09375 -19.3125 C 23.09375 -18.601562 25.257812 -17.425781 26.59375 -15.78125 C 27.925781 -14.132812 28.59375 -12.070312 28.59375 -9.59375 C 28.59375 -7.570312 28.113281 -5.789062 27.15625 -4.25 C 26.195312 -2.707031 24.75 -1.503906 22.8125 -0.640625 C 20.875 0.222656 18.507812 0.65625 15.71875 0.65625 Z M 15.71875 0.65625 "/></g></g></g><g fill="#ffffff" fill-opacity="1"><g transform="translate(1128.236014, 687.791465)"><g><path d="M 17.875 0.65625 C 15.101562 0.65625 12.660156 -0.00390625 10.546875 -1.328125 C 8.429688 -2.648438 6.773438 -4.644531 5.578125 -7.3125 C 4.378906 -9.976562 3.78125 -13.28125 3.78125 -17.21875 C 3.78125 -21.15625 4.40625 -24.460938 5.65625 -27.140625 C 6.90625 -29.816406 8.628906 -31.816406 10.828125 -33.140625 C 13.023438 -34.460938 15.570312 -35.125 18.46875 -35.125 C 20.757812 -35.125 22.820312 -34.691406 24.65625 -33.828125 C 26.488281 -32.960938 28.0625 -31.539062 29.375 -29.5625 L 30.03125 -29.6875 L 30.03125 -48.3125 L 35.125 -48.3125 L 35.125 0 L 30.03125 0 L 30.03125 -5.03125 L 29.375 -5.15625 C 28.25 -3.445312 26.722656 -2.050781 24.796875 -0.96875 C 22.867188 0.113281 20.5625 0.65625 17.875 0.65625 Z M 19.46875 -3.90625 C 22.675781 -3.90625 25.238281 -5.003906 27.15625 -7.203125 C 29.070312 -9.398438 30.03125 -12.738281 30.03125 -17.21875 C 30.03125 -21.71875 29.070312 -25.066406 27.15625 -27.265625 C 25.238281 -29.460938 22.675781 -30.5625 19.46875 -30.5625 C 16.15625 -30.5625 13.601562 -29.488281 11.8125 -27.34375 C 10.019531 -25.195312 9.125 -21.820312 9.125 -17.21875 C 9.125 -8.34375 12.570312 -3.90625 19.46875 -3.90625 Z M 19.46875 -3.90625 "/></g></g></g></svg>