<svg xmlns="http://www.w3.org/2000/svg" xmlns:xlink="http://www.w3.org/1999/xlink" width="2000" zoomAndPan="magnify" viewBox="0 0 1500 1499.999933" height="2000" preserveAspectRatio="xMidYMid meet" version="1.0"><defs><clipPath id="efc431897f"><path d="M 39.054688 185.6875 L 1461 185.6875 L 1461 1314 L 39.054688 1314 Z M 39.054688 185.6875 " clip-rule="nonzero"/></clipPath></defs><g clip-path="url(#efc431897f)"><path fill="#192e56" d="M 1215.386719 839.847656 C 1215.386719 821.4375 1230.261719 806.496094 1248.671875 806.496094 C 1267.082031 806.496094 1281.957031 821.4375 1281.957031 839.847656 L 1281.957031 940.769531 C 1281.957031 1005.207031 1255.609375 1063.773438 1213.1875 1106.195312 C 1170.761719 1148.617188 1112.195312 1174.964844 1047.761719 1174.964844 L 897.679688 1174.964844 C 882.671875 1174.964844 868.996094 1177.835938 856.988281 1183.4375 C 844.917969 1189.105469 833.910156 1197.710938 824.304688 1209.117188 L 785.21875 1255.8125 C 769.476562 1274.621094 750.730469 1289.09375 729.652344 1298.96875 C 708.441406 1308.839844 685.363281 1313.910156 660.882812 1313.910156 C 636.402344 1313.910156 613.324219 1308.839844 592.109375 1298.96875 C 570.964844 1289.09375 552.355469 1274.621094 536.546875 1255.8125 L 497.457031 1209.117188 C 487.921875 1197.710938 476.914062 1189.039062 464.839844 1183.4375 C 452.835938 1177.835938 439.160156 1174.964844 424.152344 1174.964844 L 274.003906 1174.964844 C 209.566406 1174.964844 151 1148.617188 108.578125 1106.195312 C 66.15625 1063.773438 39.808594 1005.207031 39.808594 940.769531 L 39.808594 511.132812 C 39.808594 446.699219 66.15625 388.132812 108.578125 345.710938 C 151 303.285156 209.566406 276.9375 274.003906 276.9375 L 709.574219 276.9375 C 727.984375 276.9375 742.925781 291.878906 742.925781 310.222656 C 742.925781 328.632812 727.984375 343.574219 709.574219 343.574219 L 274.003906 343.574219 C 227.976562 343.574219 186.085938 362.453125 155.671875 392.800781 C 125.253906 423.21875 106.375 465.042969 106.375 511.132812 L 106.375 940.769531 C 106.375 986.863281 125.253906 1028.753906 155.671875 1059.101562 C 186.085938 1089.519531 227.910156 1108.394531 274.003906 1108.394531 L 424.152344 1108.394531 C 448.632812 1108.394531 471.710938 1113.464844 492.921875 1123.335938 C 514 1133.210938 532.679688 1147.683594 548.488281 1166.496094 L 587.574219 1213.1875 C 597.179688 1224.59375 608.1875 1233.265625 620.257812 1238.867188 C 632.265625 1244.472656 645.875 1247.339844 660.882812 1247.339844 C 675.890625 1247.339844 689.5625 1244.472656 701.570312 1238.867188 C 713.644531 1233.199219 724.648438 1224.59375 734.253906 1213.1875 L 773.34375 1166.496094 C 789.085938 1147.683594 807.761719 1133.210938 828.90625 1123.335938 C 850.121094 1113.464844 873.199219 1108.394531 897.679688 1108.394531 L 1047.761719 1108.394531 C 1093.851562 1108.394531 1135.742188 1089.519531 1166.09375 1059.101562 C 1196.511719 1028.6875 1215.386719 986.863281 1215.386719 940.769531 Z M 1128.140625 719.582031 L 893.675781 485.121094 C 859.523438 450.96875 842.449219 405.941406 842.449219 360.984375 C 842.449219 316.027344 859.523438 271.070312 893.675781 236.917969 L 893.941406 236.648438 C 928.09375 202.699219 972.921875 185.621094 1017.8125 185.621094 C 1062.769531 185.621094 1107.726562 202.699219 1141.945312 236.917969 L 1151.75 246.722656 L 1161.558594 236.917969 C 1195.710938 202.765625 1240.734375 185.621094 1285.625 185.621094 C 1330.316406 185.621094 1375.007812 202.496094 1409.09375 236.25 L 1410.292969 237.515625 C 1444.046875 271.601562 1460.921875 316.292969 1460.921875 361.050781 C 1460.921875 406.007812 1443.847656 451.035156 1409.695312 485.1875 L 1175.230469 719.648438 C 1162.222656 732.65625 1141.144531 732.65625 1128.140625 719.648438 Z M 306.886719 948.441406 C 288.476562 948.441406 273.601562 933.5 273.601562 915.15625 C 273.601562 896.746094 288.542969 881.871094 306.886719 881.871094 L 1014.941406 881.871094 C 1033.351562 881.871094 1048.226562 896.746094 1048.226562 915.15625 C 1048.226562 933.566406 1033.285156 948.441406 1014.941406 948.441406 Z M 306.886719 759.269531 C 288.476562 759.269531 273.601562 744.328125 273.601562 725.984375 C 273.601562 707.574219 288.542969 692.632812 306.886719 692.632812 L 940.835938 692.632812 C 959.246094 692.632812 974.1875 707.574219 974.1875 725.984375 C 974.1875 744.394531 959.246094 759.269531 940.835938 759.269531 Z M 306.886719 570.101562 C 288.476562 570.101562 273.601562 555.160156 273.601562 536.816406 C 273.601562 518.40625 288.542969 503.464844 306.886719 503.464844 L 759.46875 503.464844 C 777.878906 503.464844 792.753906 518.40625 792.753906 536.816406 C 792.753906 555.226562 777.8125 570.101562 759.46875 570.101562 Z M 306.886719 570.101562 " fill-opacity="1" fill-rule="evenodd"/></g></svg>