<svg xmlns="http://www.w3.org/2000/svg" xmlns:xlink="http://www.w3.org/1999/xlink" width="2000" zoomAndPan="magnify" viewBox="0 0 1500 1499.999933" height="2000" preserveAspectRatio="xMidYMid meet" version="1.0"><path fill="#facd17" d="M 1437.023438 578.273438 C 1425.023438 543.496094 1394.265625 518.011719 1357.246094 512.472656 L 997.082031 458.570312 L 840.519531 131.339844 C 824.035156 96.988281 788.761719 75 749.992188 75 C 711.253906 75 675.980469 96.988281 659.496094 131.339844 L 502.9375 458.570312 L 142.707031 512.472656 C 105.714844 518.011719 74.957031 543.496094 63.023438 578.273438 C 51.121094 613.152344 60.125 651.5625 86.265625 677.804688 L 350.234375 943.089844 L 289.011719 1311.132812 C 282.78125 1348.1875 298.738281 1385.371094 330.023438 1407.066406 C 347.199219 1418.933594 367.40625 1425 387.617188 1425 C 404.230469 1425 420.882812 1420.910156 435.976562 1412.769531 L 749.988281 1242.558594 L 1064.0625 1412.769531 C 1079.164062 1420.910156 1095.8125 1425 1112.394531 1425 C 1132.605469 1425 1152.777344 1418.9375 1170.023438 1407.066406 C 1201.308594 1385.371094 1217.164062 1348.183594 1211 1311.132812 L 1149.746094 943.089844 L 1413.777344 677.804688 C 1439.890625 651.527344 1448.828125 613.121094 1437.023438 578.273438 Z M 1078.277344 874.679688 C 1056.125 896.867188 1046.066406 928.1875 1051.144531 958.910156 L 1112.398438 1326.921875 L 798.324219 1156.8125 C 783.289062 1148.636719 766.671875 1144.585938 749.957031 1144.585938 C 733.34375 1144.585938 716.691406 1148.671875 701.628906 1156.8125 L 387.582031 1326.921875 L 448.835938 958.910156 C 453.945312 928.183594 443.890625 896.867188 421.738281 874.679688 L 157.769531 609.363281 L 517.96875 555.363281 C 550.871094 550.453125 579.21875 529.714844 593.363281 500.144531 L 749.988281 173.015625 L 906.617188 500.210938 C 920.789062 529.78125 949.074219 550.453125 981.976562 555.429688 L 1342.242188 609.433594 Z M 1078.277344 874.679688 " fill-opacity="1" fill-rule="nonzero"/></svg>