<svg xmlns="http://www.w3.org/2000/svg" xmlns:xlink="http://www.w3.org/1999/xlink" width="2000" zoomAndPan="magnify" viewBox="0 0 1500 1499.999933" height="2000" preserveAspectRatio="xMidYMid meet" version="1.0"><defs><g/><clipPath id="c7b5ee8f8c"><path d="M 10 0.363281 L 595.601562 0.363281 L 595.601562 395.785156 L 10 395.785156 Z M 10 0.363281 " clip-rule="nonzero"/></clipPath><clipPath id="37ce31a721"><rect x="0" width="596" y="0" height="397"/></clipPath></defs><g transform="matrix(1, 0, 0, 1, 446, 552)"><g clip-path="url(#37ce31a721)"><g clip-path="url(#c7b5ee8f8c)"><path fill="#ffffff" d="M 586.734375 5.785156 C 586.175781 5.390625 585.601562 5.019531 585.007812 4.679688 C 584.417969 4.339844 583.808594 4.03125 583.183594 3.75 C 582.5625 3.472656 581.925781 3.222656 581.277344 3.003906 C 580.628906 2.785156 579.972656 2.601562 579.308594 2.449219 C 578.640625 2.296875 577.96875 2.175781 577.292969 2.089844 C 576.613281 2 575.933594 1.949219 575.25 1.925781 C 574.566406 1.90625 573.886719 1.921875 573.203125 1.96875 C 572.519531 2.015625 571.84375 2.09375 571.167969 2.207031 C 570.496094 2.320312 569.828125 2.46875 569.167969 2.648438 C 568.507812 2.824219 567.859375 3.035156 567.222656 3.28125 C 566.582031 3.523438 565.957031 3.796875 565.34375 4.101562 C 564.734375 4.40625 564.136719 4.738281 563.558594 5.101562 C 562.980469 5.464844 562.421875 5.855469 561.878906 6.273438 C 561.339844 6.691406 560.820312 7.132812 560.324219 7.601562 C 559.824219 8.070312 559.351562 8.5625 558.902344 9.078125 C 558.453125 9.59375 558.03125 10.128906 557.636719 10.6875 L 319.222656 346.300781 C 318.734375 346.855469 318.21875 347.382812 317.675781 347.878906 C 317.132812 348.378906 316.5625 348.847656 315.96875 349.285156 C 315.375 349.722656 314.761719 350.128906 314.125 350.5 C 313.488281 350.875 312.832031 351.214844 312.160156 351.515625 C 311.488281 351.820312 310.800781 352.085938 310.101562 352.316406 C 309.398438 352.546875 308.6875 352.742188 307.96875 352.898438 C 307.246094 353.050781 306.519531 353.167969 305.785156 353.246094 C 305.050781 353.324219 304.316406 353.363281 303.578125 353.363281 C 302.839844 353.363281 302.105469 353.324219 301.371094 353.246094 C 300.636719 353.167969 299.910156 353.050781 299.191406 352.898438 C 298.46875 352.742188 297.757812 352.546875 297.054688 352.316406 C 296.355469 352.085938 295.667969 351.820312 294.996094 351.515625 C 294.324219 351.214844 293.671875 350.875 293.035156 350.5 C 292.398438 350.128906 291.78125 349.722656 291.1875 349.285156 C 290.59375 348.847656 290.027344 348.378906 289.484375 347.878906 C 288.9375 347.382812 288.421875 346.855469 287.933594 346.300781 L 49.3125 10.792969 C 48.945312 10.179688 48.542969 9.589844 48.113281 9.019531 C 47.683594 8.449219 47.226562 7.898438 46.742188 7.375 C 46.257812 6.851562 45.746094 6.355469 45.207031 5.882812 C 44.671875 5.414062 44.109375 4.96875 43.527344 4.554688 C 42.945312 4.144531 42.34375 3.761719 41.722656 3.410156 C 41.101562 3.054688 40.460938 2.738281 39.808594 2.453125 C 39.152344 2.164062 38.484375 1.914062 37.804688 1.695312 C 37.125 1.476562 36.433594 1.296875 35.734375 1.148438 C 35.035156 1.003906 34.332031 0.890625 33.621094 0.816406 C 32.910156 0.742188 32.199219 0.707031 31.484375 0.703125 C 30.769531 0.703125 30.054688 0.738281 29.34375 0.808594 C 28.632812 0.882812 27.929688 0.992188 27.230469 1.136719 C 26.53125 1.28125 25.839844 1.460938 25.160156 1.675781 C 24.476562 1.890625 23.808594 2.140625 23.152344 2.425781 C 22.496094 2.710938 21.859375 3.027344 21.234375 3.375 C 20.613281 3.726562 20.007812 4.105469 19.425781 4.519531 C 18.84375 4.929688 18.28125 5.371094 17.742188 5.839844 C 17.203125 6.308594 16.691406 6.804688 16.203125 7.328125 C 15.714844 7.851562 15.257812 8.398438 14.824219 8.964844 C 14.394531 9.535156 13.992188 10.125 13.621094 10.734375 C 13.25 11.347656 12.910156 11.976562 12.605469 12.621094 C 12.300781 13.265625 12.027344 13.925781 11.789062 14.597656 C 11.550781 15.273438 11.347656 15.957031 11.179688 16.652344 C 11.011719 17.34375 10.878906 18.046875 10.78125 18.753906 C 10.683594 19.460938 10.625 20.171875 10.601562 20.886719 C 10.578125 21.601562 10.59375 22.3125 10.644531 23.027344 C 10.695312 23.738281 10.78125 24.449219 10.902344 25.152344 C 11.027344 25.855469 11.183594 26.550781 11.378906 27.238281 C 11.574219 27.925781 11.800781 28.601562 12.066406 29.265625 C 12.332031 29.929688 12.628906 30.578125 12.957031 31.210938 C 13.289062 31.84375 13.648438 32.460938 14.042969 33.054688 C 14.4375 33.652344 14.859375 34.226562 15.3125 34.78125 L 254.25 371.125 L 255.1875 372.269531 C 255.917969 373.15625 256.671875 374.023438 257.453125 374.871094 C 258.230469 375.714844 259.03125 376.539062 259.855469 377.339844 C 260.679688 378.140625 261.527344 378.917969 262.394531 379.671875 C 263.261719 380.425781 264.148438 381.15625 265.054688 381.863281 C 265.960938 382.570312 266.886719 383.25 267.832031 383.902344 C 268.777344 384.558594 269.738281 385.1875 270.71875 385.789062 C 271.699219 386.390625 272.691406 386.964844 273.703125 387.511719 C 274.714844 388.058594 275.742188 388.578125 276.78125 389.066406 C 277.820312 389.558594 278.871094 390.019531 279.9375 390.449219 C 281 390.882812 282.078125 391.285156 283.164062 391.660156 C 284.253906 392.03125 285.347656 392.375 286.453125 392.6875 C 287.5625 393 288.675781 393.28125 289.796875 393.535156 C 290.917969 393.785156 292.046875 394.003906 293.179688 394.195312 C 294.3125 394.382812 295.453125 394.539062 296.59375 394.667969 C 297.734375 394.792969 298.882812 394.886719 300.027344 394.953125 C 301.175781 395.015625 302.324219 395.046875 303.472656 395.046875 C 304.625 395.046875 305.773438 395.015625 306.921875 394.953125 C 308.066406 394.886719 309.214844 394.792969 310.355469 394.667969 C 311.496094 394.539062 312.636719 394.382812 313.769531 394.195312 C 314.902344 394.003906 316.03125 393.785156 317.152344 393.535156 C 318.273438 393.28125 319.386719 393 320.496094 392.6875 C 321.601562 392.375 322.695312 392.03125 323.785156 391.660156 C 324.871094 391.285156 325.949219 390.882812 327.011719 390.449219 C 328.078125 390.019531 329.128906 389.558594 330.167969 389.066406 C 331.207031 388.578125 332.234375 388.058594 333.246094 387.511719 C 334.257812 386.964844 335.25 386.390625 336.230469 385.789062 C 337.210938 385.1875 338.171875 384.558594 339.117188 383.902344 C 340.0625 383.25 340.988281 382.570312 341.894531 381.863281 C 342.800781 381.15625 343.6875 380.425781 344.554688 379.671875 C 345.421875 378.917969 346.269531 378.140625 347.09375 377.339844 C 347.917969 376.539062 348.71875 375.714844 349.496094 374.871094 C 350.277344 374.023438 351.03125 373.15625 351.761719 372.269531 L 352.699219 371.125 L 591.636719 34.78125 C 592.027344 34.222656 592.390625 33.648438 592.730469 33.058594 C 593.066406 32.46875 593.371094 31.859375 593.648438 31.238281 C 593.925781 30.617188 594.171875 29.984375 594.386719 29.339844 C 594.601562 28.691406 594.785156 28.039062 594.933594 27.375 C 595.085938 26.710938 595.203125 26.042969 595.289062 25.367188 C 595.375 24.691406 595.425781 24.015625 595.445312 23.335938 C 595.464844 22.65625 595.449219 21.976562 595.402344 21.296875 C 595.355469 20.617188 595.277344 19.941406 595.164062 19.273438 C 595.050781 18.601562 594.902344 17.9375 594.726562 17.28125 C 594.546875 16.625 594.335938 15.976562 594.09375 15.34375 C 593.851562 14.707031 593.582031 14.082031 593.277344 13.472656 C 592.976562 12.863281 592.644531 12.269531 592.285156 11.695312 C 591.921875 11.117188 591.535156 10.558594 591.121094 10.019531 C 590.703125 9.480469 590.265625 8.964844 589.796875 8.46875 C 589.332031 7.972656 588.84375 7.5 588.332031 7.050781 C 587.820312 6.605469 587.289062 6.183594 586.734375 5.785156 Z M 586.734375 5.785156 " fill-opacity="1" fill-rule="nonzero"/></g><g fill="#ffffff" fill-opacity="1"><g transform="translate(176.899324, 257.084192)"><g><path d="M 10.65625 -6.125 C 8.1875 -4.550781 5.847656 -3.96875 3.640625 -4.375 C 1.429688 -4.78125 -0.4375 -6.179688 -1.96875 -8.578125 C -2.914062 -10.066406 -3.40625 -11.515625 -3.4375 -12.921875 C -3.476562 -14.335938 -3.054688 -15.78125 -2.171875 -17.25 C -1.285156 -18.71875 0.0820312 -20.289062 1.9375 -21.96875 C 3.5625 -23.4375 4.726562 -24.660156 5.4375 -25.640625 C 6.15625 -26.617188 6.523438 -27.445312 6.546875 -28.125 C 6.578125 -28.8125 6.363281 -29.507812 5.90625 -30.21875 C 5.1875 -31.363281 4.242188 -31.988281 3.078125 -32.09375 C 1.910156 -32.195312 0.460938 -31.703125 -1.265625 -30.609375 C -2.890625 -29.578125 -4.085938 -28.375 -4.859375 -27 C -5.628906 -25.625 -6.097656 -24.007812 -6.265625 -22.15625 L -6.71875 -21.875 L -10.203125 -23.296875 C -9.992188 -25.304688 -9.320312 -27.234375 -8.1875 -29.078125 C -7.050781 -30.929688 -5.429688 -32.523438 -3.328125 -33.859375 C -0.367188 -35.742188 2.222656 -36.476562 4.453125 -36.0625 C 6.679688 -35.65625 8.523438 -34.304688 9.984375 -32.015625 L 18.46875 -18.671875 C 19.351562 -17.273438 20.382812 -16.953125 21.5625 -17.703125 C 21.957031 -17.953125 22.300781 -18.269531 22.59375 -18.65625 L 22.953125 -18.765625 L 25.03125 -16.4375 C 24.875 -16.101562 24.601562 -15.738281 24.21875 -15.34375 C 23.84375 -14.957031 23.414062 -14.613281 22.9375 -14.3125 C 21.550781 -13.4375 20.3125 -13.078125 19.21875 -13.234375 C 18.125 -13.390625 17.101562 -14.003906 16.15625 -15.078125 L 15.640625 -14.8125 C 15.765625 -13.03125 15.425781 -11.425781 14.625 -10 C 13.832031 -8.582031 12.507812 -7.289062 10.65625 -6.125 Z M 9.609375 -9.59375 C 11.015625 -10.488281 12.019531 -11.582031 12.625 -12.875 C 13.238281 -14.175781 13.445312 -15.585938 13.25 -17.109375 C 13.0625 -18.628906 12.484375 -20.15625 11.515625 -21.6875 L 9.484375 -24.875 L 8.984375 -24.6875 C 8.671875 -23.9375 8.191406 -23.171875 7.546875 -22.390625 C 6.910156 -21.617188 5.941406 -20.660156 4.640625 -19.515625 C 3.304688 -18.398438 2.34375 -17.363281 1.75 -16.40625 C 1.15625 -15.445312 0.875 -14.535156 0.90625 -13.671875 C 0.945312 -12.816406 1.257812 -11.925781 1.84375 -11 C 2.78125 -9.519531 3.925781 -8.671875 5.28125 -8.453125 C 6.632812 -8.242188 8.078125 -8.625 9.609375 -9.59375 Z M 9.609375 -9.59375 "/></g></g></g></g></g></svg>